<?xml version="1.0" encoding="UTF-8"?>
<svg width="126px" height="126px" viewBox="0 0 126 126" version="1.1" xmlns="http://www.w3.org/2000/svg" xmlns:xlink="http://www.w3.org/1999/xlink">
    <defs>
        <linearGradient x1="50%" y1="0%" x2="50%" y2="100%" id="linearGradient-1">
            <stop stop-color="#0D1117" offset="0%"></stop>
            <stop stop-color="#C84F46" offset="100%"></stop>
        </linearGradient>
    </defs>
    <g id="Icon-v2" stroke="none" stroke-width="1" fill="none" fill-rule="evenodd">
        <path d="M52.9707082,1.00001635 L59.5114964,4.60644741 L71.6030751,13.2994759 C73.1714862,14.9443922 73.9323077,16.665916 74.2525633,19.3060109 C74.3920232,20.4556782 74.383735,21.4603113 74.241489,22.5547214 C75.2685044,20.920209 76.5377429,19.3766221 78.0854117,17.9063471 L78.5144337,17.5071674 L82.6985353,13.6934247 L82.6985353,19.354815 C82.6985353,25.2968073 84.1746936,29.2284313 87.7137655,34.403097 L91.7213467,40.1385217 C95.5767203,46.0447133 97.345255,51.8929445 96.7382475,59.6317359 L99.8887482,53.9192963 L102.406951,56.716894 C105.353133,61.4003358 105.195032,68.3823145 102.156757,77.7526776 L101.968,78.326 L108.241949,69.3017883 L108.716641,76.0167751 C109.100216,92.9339498 102.638907,107.411003 91.0145266,116.330673 C83.2041592,122.323758 74.9192682,125.669587 62.001185,125.495038 C34.0265776,125.117045 13.7185995,100.88093 17.7944317,71.8762405 L17.9254227,70.9958706 L19.9597388,58.0429372 L22.8343273,70.8356565 C22.8726609,71.0062517 22.9182465,71.1775279 22.9707118,71.3489158 L23.0545232,71.6060103 L23.096,71.72 L23.0343903,71.2225284 C21.8354306,61.2045644 23.4784882,54.7369577 27.767115,47.7274667 L28.0224371,47.3144879 L28.2525193,46.9493228 L28.6652825,46.3055207 L30.1410618,44.0415027 L30.7425611,43.1032414 C32.6690826,40.0583318 33.8291863,37.7960276 34.7731765,35.0060838 L34.913223,34.5834712 L35.4581788,32.9035025 C33.262699,27.7657228 35.7159208,21.4710369 40.453049,17.5160725 L48.6657403,12.6091241 C49.3512188,11.659401 50.1184067,10.6566419 50.9707082,9.5862804 L51.4039675,9.04539868 L52.7863959,7.33074329 C52.6281037,6.73602995 52.6895411,4.62578763 52.9707082,1.00001635 Z" id="Path" fill="#F6F7F8" fill-rule="nonzero"></path>
        <path d="M53.350806,10.6137799 C49.5779979,25.9494902 68.8733031,23.1463374 68.8733031,45.5902938 C75.1856393,38.3381942 70.0917473,28.5669928 80.1985353,19.354815 C80.1985353,27.6747173 83.3059613,32.5386083 86.6050328,37.1788148 L87.0270073,37.7702155 L87.0270073,37.7702155 L87.5321662,38.4759114 L87.7844197,38.8290552 L87.7844197,38.8290552 L88.2868369,39.537529 C88.4386584,39.7530949 88.5898304,39.9693566 88.7400639,40.1866347 L89.0391939,40.6226411 C89.1384296,40.7684915 89.2371626,40.9148887 89.3353071,41.0619275 L89.6278896,41.5050638 C93.5031664,47.4417459 96.2998488,54.5570052 92.5354307,68.9285461 C96.1301695,66.7255513 98.7153023,63.0987255 100.290829,58.048069 C103.468012,63.0987255 102.281211,72.0759349 96.7304246,84.9796971 C101.616731,82.9190802 104.48398,80.0697718 106.217283,76.0734448 C106.595948,92.7740741 100.055176,106.44772 89.1043771,114.641476 C88.7623534,107.066724 88.3291419,99.8689711 87.8051452,93.0471985 C86.911169,81.4087619 84.8769476,75.2058974 80.76746,69.2908927 C76.6579724,63.3758881 72.0754669,61.4754963 65.6357228,60.5836132 C59.1959787,59.6917302 52.8253106,61.0885721 45.7802537,64.7558495 C38.7351968,68.423127 34.144434,75.8769029 36.1694859,80.1403768 C38.1945377,84.4038508 44.7231902,87.1510325 52.3392343,86.8942976 C59.9552784,86.6375627 65.2824593,83.9241451 67.2523377,83.1904348 C69.2222161,82.4567245 70.0529415,84.8196685 68.5467512,85.6011582 C67.5426244,86.1221514 65.7624299,87.049378 63.2061677,88.382838 C64.203564,93.9884707 64.7022622,99.7164207 64.7022622,105.566688 C64.7022622,110.810403 64.6098046,116.611742 64.4248895,122.970705 C63.6357492,122.998375 62.8389333,123.006129 62.0349619,122.995266 C35.8259005,122.641129 15.9318859,99.8023196 20.395149,71.3837522 C21.0594877,74.3402446 23.4935839,77.8127062 26.9840476,79.2599006 C23.0908187,61.670118 26.26477,54.7381482 30.3588088,48.2960019 L30.6270526,47.8764519 C30.6719563,47.8066078 30.7169529,47.7367955 30.7620345,47.6670019 L31.1593478,47.0551187 C33.3543889,43.6888096 35.6935344,40.2772064 37.2911002,35.3552871 C36.5044278,43.2828875 37.2911002,47.6904061 41.1150628,52.2945967 C41.8149049,50.2132609 43.0996792,48.237231 44.4424627,46.2550011 L45.0644092,45.3392795 L45.0644092,45.3392795 L45.4521939,44.7654239 C48.0912839,40.8382958 50.4439326,36.7787649 48.474534,31.7328263 C45.2562485,23.4870242 45.5632055,20.2805628 53.350806,10.6137799 Z M53.2525377,68.7091463 C54.3031202,68.7091463 55.1547856,69.5608118 55.1547856,70.6113943 C55.1547856,71.6619769 54.3031202,72.5136423 53.2525377,72.5136423 C52.2019551,72.5136423 51.3502897,71.6619769 51.3502897,70.6113943 C51.3502897,69.5608118 52.2019551,68.7091463 53.2525377,68.7091463 Z M43.3321464,67.0557478 C44.3827289,67.0557478 45.2343943,67.9074132 45.2343943,68.9579958 C45.2343943,70.0085783 44.3827289,70.8602437 43.3321464,70.8602437 C42.2815638,70.8602437 41.4298984,70.0085783 41.4298984,68.9579958 C41.4298984,67.9074132 42.2815638,67.0557478 43.3321464,67.0557478 Z M44.349403,17.8598686 C42.279501,19.9718954 42.7288765,26.1191741 45.1082749,31.5168824 C47.4876734,36.9145906 44.349403,40.9767359 40.9861448,45.9777617 C41.5733194,39.3228873 40.9606825,37.743065 38.1036499,32.6264411 C35.2466174,27.5098173 39.1605363,20.7362226 44.349403,17.8598686 Z M64.6877559,10.6495712 C69.5286354,14.8557025 71.2454196,15.2763403 71.7707562,19.6070654 C72.2960929,23.9377905 69.9492486,25.9488732 70.8878281,31.6043711 C61.0002212,23.4842504 68.7592339,20.5914699 64.6877559,10.6495712 Z M53.8178225,2.99997627 C57.2965642,7.12389584 59.3632305,6.0444885 61.6322354,11.3151045 C63.9012404,16.5857206 61.0586033,17.7811545 63,24.1193578 C56.6114185,18.6225297 56.0111435,15.9503886 55.8765665,12.8284545 L55.8628023,12.4660489 C55.7828316,10.0950158 55.8496634,7.40013203 53.8178225,2.99997627 Z" id="Combined-Shape-Copy" fill="url(#linearGradient-1)"></path>
    </g>
</svg>