<svg xmlns="http://www.w3.org/2000/svg" viewBox="0 0 126 126">
  <path fill="#fff" d="M73.33 20.356c.177 2.011-.17 3.362-1.108 5.196.903-1.307 2.11-2.683 3.625-4.128l.384-.36 4.703-4.286-1.405 6.206c-1.168 5.16-.232 8.248 3.133 12.731l.325.427 1.923 2.46c5.256 6.777 7.551 12.879 6.519 22.056l-.062.523-.039.288.065-.12c.348-.68.663-1.412.945-2.199l.166-.478.135-.421 1.292-4.142 2.31 3.673c2.09 3.322 2.314 8.04.78 14.197l-.125.489-.057.208 1.686-3.826 1.398 5.726c1.085 4.447 1.63 8.401 1.63 11.87 0 12.103-5.616 23.275-14.997 30.524a44.376 44.376 0 01-10.325 5.694C72.556 124.092 68.146 124.871 63 125c-21.293 0-38.554-17.261-38.554-38.554 0-5.447.415-10.592 1.246-15.436l.172-.964 1.632-8.837 1.666 6.38-.022-.29c-.598-8.213 1.219-13.622 5.35-19.412l.517-.711.75-1.002.747-.987.373-.497.308-.417.576-.797c1.1-1.548 1.898-2.85 2.594-4.282l.172-.361.512-1.09-.174-.326-.38-.695a113.48 113.48 0 00-.206-.371c-2.825-5.06.29-11.84 5.784-15.044l.268-.153 2.173-1.204c1.953-2.78 4.095-6.577 5.581-9.028.992-1.634-.218-5.189-3.628-10.665 3.307.835 6.08 2.058 8.317 3.67 1.997 1.439 7.96 5.92 11.5 9.983 2.338 2.68 2.949 5.213 3.057 6.446z"/>
  <path fill="#23241f" d="M53.035 15.784c-1.402 5.7 1.664 8.719 5.391 11.749l.512.414.437.35.44.352c.66.53 1.328 1.07 1.98 1.635l.434.38c3.518 3.134 6.5 7.07 5.784 14.037 4.404-4.29 1.03-14.378 9.566-22.158-4.046 17.868 17.948 15.735 10.42 45.493 3.035-1.86 5.219-4.924 6.55-9.19 2.683 4.266 1.68 11.848-3.008 22.747 2.95-1.315 5.097-3.496 6.439-6.543 1.05 4.302 1.574 8.1 1.574 11.396 0 11.96-5.743 22.577-14.622 29.246a595.417 595.417 0 00-1.068-17.394c-.782-10.176-2.56-15.6-6.153-20.772-3.594-5.172-7.6-6.834-13.231-7.613-5.631-.78-11.201.441-17.362 3.648-6.16 3.206-10.174 9.724-8.403 13.452 1.77 3.727 7.48 6.13 14.138 5.905 6.66-.224 11.318-2.597 13.04-3.238 1.723-.642 2.449 1.424 1.132 2.107-.878.456-2.435 1.267-4.67 2.433a85.609 85.609 0 011.308 15.025c0 4.179-.067 8.762-.201 13.75L63 123c-20.188 0-36.554-16.366-36.554-36.554 0-5.691.462-11.037 1.385-16.037.752 2.88 2.353 4.998 4.803 6.353-3.639-16.65-.202-22.755 3.975-28.39l.37-.496.374-.495.375-.496.376-.499.376-.501c1.378-1.849 2.736-3.803 3.859-6.205-1.193 7.3-2.789 13.48 3.237 19.167-.615-4.949.68-7.607 2.128-10.155l.301-.526.303-.528c1.256-2.207 2.447-4.555 2.447-8.444 0-2.658-.514-4.625-1.03-6.417l-.11-.382c-.09-.31-.18-.618-.265-.924l-.1-.366c-.964-3.6-1.231-7.16 3.785-15.32zm.363 60.513a1.956 1.956 0 110 3.912 1.956 1.956 0 010-3.912zm-7.822-1.303a1.956 1.956 0 110 3.911 1.956 1.956 0 010-3.911zm1.724-52.09c-1.748 1.783-1.368 6.975.641 11.534 2.01 4.56-.64 7.99-3.481 12.214.496-5.62-.022-6.955-2.435-11.277-2.413-4.321.893-10.042 5.275-12.471zm17.157-12.081c2.862 3.923 6.437 4.636 6.881 9.708.173 1.977-.4 3.183-1.062 4.427l-.175.326c-.995 1.859-2.062 3.954-1.082 8.9-4.664-6.324-4.422-9.137-3.705-11.882l.094-.35.096-.352.098-.354c.668-2.429 1.267-5.141-1.145-10.423zM54.085 3c4.27 2.928 8.19 4.834 8.538 9.804.133 1.904-.193 3.226-.51 4.475l-.105.415c-.463 1.858-.786 3.68.615 7.184-6.71-4.065-6.53-7.04-5.965-10.404l.066-.39.068-.394c.495-2.904.906-6.17-2.707-10.69z"/>
</svg>
